<svg xmlns="http://www.w3.org/2000/svg" viewBox="0 0 369 153"><defs><style>.cls-1{fill:#629fe8;}.cls-2{fill:none;}</style></defs><title>tile-desk-bot-bot-arrow</title><g id="Livello_2" data-name="Livello 2"><g id="Livello_1-2" data-name="Livello 1"><path class="cls-1" d="M266.23,69.67a.76.76,0,0,0,.14-.23A.59.59,0,0,0,266.23,69.67Z"/><path class="cls-1" d="M244.8,60.89l.3,0C244.92,60.81,244.85,60.83,244.8,60.89Z"/><path class="cls-1" d="M278.83,75.3l-.05,0,.87.42Z"/><path class="cls-1" d="M196.63,49.23l.31,0C196.8,49.24,196.71,49.2,196.63,49.23Z"/><path class="cls-1" d="M225.4,55.41a.66.66,0,0,1-.42.09C225.16,55.56,225.31,55.57,225.4,55.41Z"/><path class="cls-1" d="M283.3,83.27l-.2-.5A.44.44,0,0,0,283.3,83.27Z"/><path class="cls-1" d="M296.46,87.62a.27.27,0,0,0,0-.09A.06.06,0,0,0,296.46,87.62Z"/><path class="cls-1" d="M292.21,83.94h-.42C292,84,292.14,84.08,292.21,83.94Z"/><path class="cls-1" d="M291.58,83.94h.21C291.69,83.9,291.61,83.88,291.58,83.94Z"/><path class="cls-1" d="M22.21,82.94a2.07,2.07,0,0,0-.74,1Z"/><path class="cls-1" d="M151.65,46.89l.09-.16C151.65,46.79,151.64,46.84,151.65,46.89Z"/><path class="cls-1" d="M23.44,86.05l-.29.08A.52.52,0,0,0,23.44,86.05Z"/><path class="cls-1" d="M276.2,81.42c-.51.19-1.09-.53-1.22-.19C275.39,81.33,275.83,81.82,276.2,81.42Z"/><path class="cls-1" d="M143,61.35l-.26,0A.78.78,0,0,0,143,61.35Z"/><path class="cls-1" d="M23.44,86.05l.33-.09-.18-.11A.46.46,0,0,1,23.44,86.05Z"/><path class="cls-1" d="M105,51.63h0l.08-.08Z"/><path class="cls-1" d="M102.39,51.47l.5-.21A.59.59,0,0,0,102.39,51.47Z"/><path class="cls-1" d="M21.47,84l-.42.59A1.81,1.81,0,0,0,21.47,84Z"/><path class="cls-1" d="M76.36,58.28a1.67,1.67,0,0,0,.23-.12A.55.55,0,0,0,76.36,58.28Z"/><path class="cls-1" d="M227.2,56a1.27,1.27,0,0,0,.19.13C227.43,56.07,227.43,56,227.2,56Z"/><path class="cls-1" d="M207.5,62.31h0Z"/><path class="cls-1" d="M208.51,62a1.1,1.1,0,0,0-1,.3A1.2,1.2,0,0,0,208.51,62Z"/><path class="cls-1" d="M205.51,61.77l.1.06A.21.21,0,0,0,205.51,61.77Z"/><path class="cls-1" d="M224.19,66.1s0,0,0,0,0,0,0,0Z"/><path class="cls-1" d="M220.48,65.35a.63.63,0,0,0-.22-.21A.5.5,0,0,0,220.48,65.35Z"/><path class="cls-1" d="M196,61.53h0Z"/><path class="cls-1" d="M160.42,62.05c1.78-.1,3.81-.33,5.86-.51a32.35,32.35,0,0,1,5.83,0c.8-.74,1.92-.71,3.06-.83l.06,1,1-.29c.36.33-.73.16-.08.58l.39-.62c.05.37,2.39.35.77,1,1.21,0,2.42.13,3.63.25.8.1.53-.81,1.4-.48.15.31-.34.18-.29.55,2.59,1,3.24-1.71,5.69-1l-.22.12c.45-.24,1.25-.13,1.27-.28-.22-1.05-.5.52-1.2-.15.15-.86,1-.38,1-1,.55.36.95-.1,1.46-.11.82.6,2.11.37,2.68,1.14.46-.22,1-1,2-.92.57.76-.23.62.63,1l.2-.48c.72.17.59.3.53.53.78.12.74-.6,1.68-.16l-.61.42a5.67,5.67,0,0,1,2,.2c-.06.28-.46.21-.74.09.45.81,1-.2,1.26-.08,0-.23-.74-.42-.33-.86.49.15,1.16-.54,1.44.09l-.62.41c1.1-.25.65-.55,1.82-.2-.07,0-.05.16-.1.26.85-.53,1.77.14,2.87.4l-.23.09c.48-.09.79-.49,1-.41-.59-.4-.4-.51-.38-1,.71,1,1.44-.73,2.74,0a.44.44,0,0,1-.78.2c-.61.76-.78,1.46-1.68,1.71.55-.1,1.18-.12,1,.22l.29-.76c.32,0,.56.13.8.17.22-.47-.51-.92.28-1.12s.31.88.49.55c1.19-.12.61-.76,1.67-.31-.12,0-.36.14-.44,0,.73.45,1.95.2,2,1.18-.15.19-.22.47-.5.33l0-.14c-1,.54.75-.06.34.74,0-.51,1.1-.21,1.58,0l0-.6c2-1.43-.3,1.12,1.37,1.18,1.11-.21-.36-.23.35-.52.68.22.84.78,1.91.71.24.28.76.72.68,1.37.66-.13,1.8.69,2.28.15-.94-.77-1.18.44-2.24-.67l.47-.54c.84.22,2,.14,2.54.5a.35.35,0,0,1,0-.44c1.26,0,1.75-.52,2.89-.07,0,.61-.64.36-1.16.29.67.63.79.21,1.94.66,0,.51-.79-.21-1,.25l1.35.13a.38.38,0,0,0,0,.1c.38-.79,1,.3,1.84.22,1.89.42,2.45-.63,3.66-1.07.23.29.26.52.09.7-.37-.47-.36-.16-.58,0,.67,0,1.2,1.16.77,1.4,1.06,0-.26-.54.42-.63l1.37.42c-.06-.47-.53-.69.27-.82a6.61,6.61,0,0,1,1.69.44c-.17.18.08.71-.5.53.34.26.93.44,1.26.09-.76-.62,1.51,0,1-.82l.76.61c-.19-.06-.29.22-.56.06.08.7.76,0,1.08,0,.27.21,1,.47,1,.74.32-.1,1,.21,1,.57.44,0,.14-.41.32-.58l1.37.42c0,.37-.19,1.39-.43,1.46.61-.19.47-1,1.25-.75-.64.56.9.81,0,1.45.31.62,1.6.93,2.34,1,.59-.41-.66-.55-.46-1.09,2,.42,2.6-1.07,4-.35l-.33-.27a2.56,2.56,0,0,0,1.55-.29c-.46.6.46,2.16,2,2.48.24-.3-.62-.92-.21-1.38l1,.2c.05.08-.09.16-.25.21,1,0,1.37,1.41,1.88.69l.57,1.28-.21-.54c.23-.3,1.25-.09,1.5-.16a1.68,1.68,0,0,1,1.82,1c-.08-.34-.31-1.11.52-1-.37,1.08,1.52,1,1.3,1.56.32.1.76.65,1,.2l-.29.67c.4-.93,1.54-.46,2.49-.31-.66,1.22,1,.25,1,1.57.48-.81,1.69.23,2.11-.46.7.21.34,1,.41,1.34l.43-.21c.19.53,1.45,1.06,2.1,1.61l1-.51.13.45c.19-.16.82-.06.57-.48l.36.19c.35-.83.63,0,1.53-.11.13.19,0,.38-.21.43.38.15,0,.52.14.88-.18-.32,1.94-.94,1.08-1.74.06-.37.75-.37,1.06-.06l-.07.84.76-.61c.62.14.68.72,1.11,1-.49-.15-1.64,1-.39,1.49a4.09,4.09,0,0,0-1.58.13c.25.14.35.26-.18.42,1.06.16.51-.33,1.5,0-.32.65-.14,1,.59,1.55l-.42-.75a.43.43,0,0,1,.19-.13.5.5,0,0,1-.18-.58c.19.08,1.45-.37,1.44.1-.54-1.44,2-.11,1.65-1,.19-.15.88.09.81.45-1,.17.29,1,0,1.43.38-.07-.42-.76.09-.85.49.16.67.71.85,1l-.25.05.61.6c.26-.28-.48-.86.27-.75.12.21.87.32.74.58-.52.32-.54,1-1.16.9.49.15,2.05.71,1.7-.17l.56.26c-.24-.43-1-1.35.16-1l-.07.13,1-.17.2.49c.06-.17.25-.27.54-.14,0,.23.24.43.1.68.87.33.95,0,1.15-.18.5.15.62.36.22.66.62.36,1.78.83,2.06,1.38,1,.1-.11-.23.59-.44.23,1.51,2.65,1.78,4.12,2.3.09-1.18.44.07,1.12-.72-.45.17,1,1.4-.39,1.1l.81.25c.25.79-1.44-.17-1,1,.86.36,1.93-.47,2.74.36-.67.55.88.13.26.78-.33.16-.57,0-.87-.12l.1.22c1.75,1.07.94-.58,2.14-.61,1.17.44.61,1,.52,1.33.11.22.73.38,1.11.33a.74.74,0,0,1-.52-1.33c.1,1,1.64.85,2.1.68-1.19-1.6-1.09-.56-2.16-2.18-.34.15-.65.89-1.41.16.74-.08.15-.41,0-.61,0,.5-.72-.12-1.08-.08-.09-.45,1-.7.16-1.3l-.64.89c-.29-.31.5-.64-.38-.77.66-.31.25-.85,1.37-.52-.85-1.41-2.13-.44-3.26-.54.13,0,.2-.14.33-.16-.33.16-.7,0-1-.11-.53-.52.71-.2.67-.55l-1-.46a.11.11,0,0,1,0-.08c-.33,0-.63,0-.61-.32a9.55,9.55,0,0,0,1-.6l-1.4.18c.26-.27-.65-1,.24-.86l-1.68-.62.17-.73c-.44-.06-.51.07-.09.36-.48-.41-3,0-2.08-1.16-1.53,0-1.91-.4-3.61-.71,1.47-.12-1-1.36.35-1.12-.62-.6-1.08.06-1.72-.07-.43-.52.1-1.07.8-1.07h-.83l.07-.12-.77.12c-.5-.63.14-.73-.49-1.1l-.39.53-.31-.53c.06.34-.39.3-.89.14l.07-.13-.64-.13c.73-.12-.49-.35,0-.67a6.3,6.3,0,0,0-1.46-.5v.47c-1.33-.14.2-.63-.75-1.06l-.13.49c-1.07-1.37-2.53-.52-3.34-1.46.62.13.69-.48.63-.35-1-.19-2.38-.82-3.52-.6a1.8,1.8,0,0,0-.92-1.7c-.71-.22-.84-.19-1.22.13-.57-.51-2-.58-1.83-1.09-.3.34-.58-.3-1.07-.1v-.23l-.12.5c-.81-1.51-2.22-.13-3.1-1.5l.25-.06h-.57c0-.24.24-.3.36-.56l-2.33-1,.34.53c-.51-.14-1,.21-1.48-.26,1.2-.42-.78-.28-.75-.88l.57,0c-.71-.18-.71-.18-.82.32-1-.11-.32-1.11-1.33-.86l.59.21c.09.34-.47.6-.87.46-.07-.1-.28-.41,0-.37-.77,0-1.77-.63-2.15-.54-.34-.27-.1-.57.15-.64-1.67,0-.67-.31-2.34-.37l.11-.27-.63.17-.57-.83.16.45a3.36,3.36,0,0,1-1.43-.36l.36-.33c-1.49-.23-1.45-1.21-3-1.06-.07-.11.18-.17.31-.2-1.45.26-.74-1.05-2.25-.6.12-.12,0-.33.11-.43l-.66.11.21-.54-.71.69-.2-.67-.3.21c-.33-1.24-1.43-.67-2.07-1.7l0,.75c-2.54.89-4.71-2.13-7.49-2.15l.18-.55-1.23.38c-.47-.6.46-.39.35-.73-1.23,0-.68.71-2.07.56-.6-.53.34-.36.72-.49a9.93,9.93,0,0,1-4.1-.61c0,.07-.12.16-.08.2a12.84,12.84,0,0,1-2.89-.6c.08-.25.32-.24.56-.25-.33-.1-.75-.38-1.09-.18l.46-.41c-.7-.26-2.17-.11-2.21-.72,0,.23-.08.65-.69.49-.17-.94-1.76,0-2.66-.69.16-.18.9-.06.7-.12-.46-.34-1,0-1.48.17l.21-.33-2.42.08c-.19-.93-2.22-.25-2-.86-.83-.18.63.51-.44.42-.22-.41-1,0-.84-.55l.13,0-.75-.09.56-.47a1.43,1.43,0,0,0-1.32.9c-.54-.41-1.44-.3-1.62-.86l.24-.1c-1.72-.07-2.55-2-4-1.3-.09-.09-.05-.23.15-.19-.34-.08-.69-.14-1-.19l.31-.39-1.83.42.06-.28a33.77,33.77,0,0,0-4.44-.46l.24-.1c-1.67.23-1.52-.48-2.74-.32a.21.21,0,0,1,.14-.1l-1.07-.13.27-.25c-.86.52-2.16-1.09-1.73-.51-.48.21-1.28.45-1.45.78-1.17-.08-.25-.39-.94-.7-.84-.11-1,.38-2.16,0l0-.29c-.53,0-.89.18-1.63.16l.23-.12c-1.27.5-1.44-1-2.5.2-.49-.28-1.47-.18-1.38-.76a41.38,41.38,0,0,1-4.24.42c-.18-1-.33,0-1.2-.55l0,.51c-2.12,0-4.5-1.4-6.86-1.3L172,46.2l-.49.54c-1.26-.18-2.71-.37-4.1-.49s-2.71-.15-3.72-.16a5.06,5.06,0,0,1-2.72.68l.11-.07a19.62,19.62,0,0,1-5.75.2c.12-.22-.08-.37.14-.51-.47.58-1.17.07-1.6.07l.51.36c-.56.5-1.38.06-1.68-.3l-.88.58c-.06-.05-.16-.13-.17-.21l-.15.28-.5-.66c-.21.14-1.4.35-1.74,1-.1-.22-.94-.37-.3-.51l-3.28-.09.52.22c.09.5-.88.86-1.39.64.64-.43,0-.72-.29-1.09-.43.29.41.44.19.73a2.92,2.92,0,0,1-2,.41l.32-.23c-.74.24-1.14-.62-1.89-.52-.65.45-1.17.11-1,1-1,.25-.41-.56-.73-.63a1.68,1.68,0,0,1-2-.15c-.43,1.32-2.65-.28-2.76.81l-.85-.55a1.08,1.08,0,0,1-.73,1.11c-.64-.24-.54-.76-.75-1L132,48.72a21.42,21.42,0,0,0-5.91-.12,39.92,39.92,0,0,1-6.16.15,29.33,29.33,0,0,1-5.75,1.39l.19-.16h-2l1.51.28a3.56,3.56,0,0,1-1.13.48,19.45,19.45,0,0,0-7.76.9c-1.49,1.52-1.35-.87-2.83.3.12-.13.14-.32.24-.46a23.63,23.63,0,0,0-4.22,2.26c0-1.24-1.14.27-1.11-.4l0,.52c-.45-.21-1.4-.13-1.34-.5l-.65.77-.17-.49c-.52.09-1.32.36-2.07.49a2,2,0,0,1-1.86-.27,18.61,18.61,0,0,1-4.51,1.64c-.86.22-1.74.41-2.62.58l-2.52.55a3.91,3.91,0,0,1-2,1.06l-.94-.38c-.68.38-1.25,1.34-2,1.15a.19.19,0,0,1,0-.17c-.71.31-1.5.22-2,1-.82.22-1.7.15-1.62-.47.21,1-1.76.39-1.76.39a171,171,0,0,0-22.06,7.16,114.68,114.68,0,0,0-16.4,8c-4.84,2.94-8.63,6-10.28,8.56-.07.6-.78,1.4-.14,1.71-.56.55-1.35,0-1.23.52,1.13-.31.4,1.27,1.63,1.25l-.51.45c.08.37.56-.82.76-.18l-.33-.89a1.46,1.46,0,0,1,1.2,0c.24-.55-.12-1.81,1.18-1.92l-.25.21c.81-.5.8.24,1.05.28l-.19.09.93,0c-.68,0-1.19,1.16-.75.86,1.11-.32-.37-.06.31-.57.44-.29.55.21.67.48l.81-.49c.18.4-.55.28,0,.49l.82-1c.72.87.9-1.07,1.86-.41-.63.63.24.3.28.67.61-.33,1.21-.69,1.82-1,.24,0-.34.55-.08.36.49.09.45-.53.64-.62.3.19,1.38-.7,1.66,0,1.47-.18.11-1.1,1.48-1.29.34.32-.89.54-.17.7L36.8,82c0,.24.07.76-.42.89,3.56-1.07,6.3.25,9.08-1.64.64.29-.16.46-.32.91,1.9-1.62,3.55-.27,5.39-1.12l-.13-.42A12,12,0,0,0,55,79.67a26.55,26.55,0,0,1,4.62-1.51L59.13,78c.26-.54.92-.83,1.35-1.19.15.18,0,1,.77.51-.23-.08-.66-.1-.62-.33,3,.08,8.35-2.08,12.82-2.91a68.78,68.78,0,0,1,9-2.56c1.54-.36,3.08-.71,4.59-1.09s3-.69,4.45-1.12c-.88.25-.76-.88,0-.8,2.26,1.33,3.11-1.1,5.27-.3,3.3-1.27,6.64-.43,9.56-2.37l.16.49c.52.15.59-.23,1.08-.37v.15c1.22,0,2.56-.79,3.28-.67l0-.57c.69-.17.44.37,1.1-.08l0,.29.75-.69c.09,1,2-.28,2.64.12a13.14,13.14,0,0,1,4-1c.33.48,2,.23,3.15.33a50.86,50.86,0,0,1,7.83-1l-.12-.64.7-.12c0,.14.11.21,0,.29.62.68,1.61-.4,2.22,0-.41-.55-.5,0-.91,0-.61-.25-.12-.94.7-.7v.15l.5-.4c.11.5.61.69.72,1.19,2.31-.3,3.83-1.28,6.26-1.21-.21.58,1.72-.27,1.3.75,1.42-.47-.29-.78.33-1.53.4,0,.81-.31.91,0-.18.25.36.58,0,.69l1-.14c.09.07-.11.22-.21.29,1.93-.73,3.51.51,5.25-.15.12-.36-.7-.07-.59-.44,1.75-.78,1.6.6,3.24,0l-.33.5c.52-.36.75-.79,1.64-.42.16.58-.74.5-1.15.79.6,0,2.12-.2,1.65-.71.72-.22,1,.29,1.38.44,0-.14-.68-.37-.26-.65a20.35,20.35,0,0,0,3.72.33c0,.15.07.37,0,.44C159.19,60.9,159.1,62.2,160.42,62.05Z"/><path class="cls-1" d="M224.66,66.3l-.47-.2a.43.43,0,0,1-.33.36Z"/><path class="cls-1" d="M201.84,61.69a1.07,1.07,0,0,0-.19.13A.19.19,0,0,0,201.84,61.69Z"/><path class="cls-1" d="M196.11,62c.41-.07.08-.27-.1-.45A.55.55,0,0,0,196.11,62Z"/><path class="cls-1" d="M237.85,68a.25.25,0,0,0-.19.21C237.8,68.11,237.85,68,237.85,68Z"/><path class="cls-1" d="M272.46,79.86a1.7,1.7,0,0,1-.1-.14A.19.19,0,0,0,272.46,79.86Z"/><path class="cls-1" d="M270.91,78.24a1.23,1.23,0,0,0-.42-.07A.51.51,0,0,0,270.91,78.24Z"/><path class="cls-1" d="M229.21,65.93a.59.59,0,0,0-.41.1A.5.5,0,0,0,229.21,65.93Z"/><path class="cls-1" d="M270.05,78.15l-.46-.23,0,.1Z"/><path class="cls-1" d="M273,80.17a4.27,4.27,0,0,1-.56-.31A.62.62,0,0,0,273,80.17Z"/><path class="cls-1" d="M251,71s0,0-.05,0C250.46,71.15,250.73,71.13,251,71Z"/><polygon class="cls-1" points="267.59 78.32 267.54 78.27 267.34 78.37 267.59 78.32"/><path class="cls-1" d="M275,81.23a.39.39,0,0,0-.28,0l.25.17A.37.37,0,0,1,275,81.23Z"/><path class="cls-1" d="M258,74.24a1,1,0,0,0,.35-.38C258.19,73.81,258.05,73.86,258,74.24Z"/><path class="cls-1" d="M296.4,120a1.07,1.07,0,0,0,.07.25C296.45,120.14,296.42,120.06,296.4,120Z"/><path class="cls-1" d="M306.52,117.78l-.07.16A.14.14,0,0,0,306.52,117.78Z"/><path class="cls-1" d="M290.44,121.6s0,0,0-.07l-.42.12Z"/><path class="cls-1" d="M329,110.85l-.22.1C328.92,110.91,329,110.91,329,110.85Z"/><path class="cls-1" d="M315,115.07a.29.29,0,0,1,.09-.23C315,114.85,315,114.9,315,115.07Z"/><path class="cls-1" d="M285.34,117.54l.31.29C285.58,117.68,285.46,117.55,285.34,117.54Z"/><path class="cls-1" d="M280.14,121.27a.18.18,0,0,0,.05.08A.16.16,0,0,0,280.14,121.27Z"/><path class="cls-1" d="M283,121.8a.9.9,0,0,0,.1-.22C283,121.62,282.91,121.65,283,121.8Z"/><path class="cls-1" d="M283.1,121.46l0,.12S283.13,121.52,283.1,121.46Z"/><path class="cls-1" d="M298.72,39.29c-.08-.16-.4-.14-.69-.15Z"/><path class="cls-1" d="M332,88.65l.15-.05A.25.25,0,0,0,332,88.65Z"/><path class="cls-1" d="M295.79,40.85V40.7C295.76,40.78,295.77,40.82,295.79,40.85Z"/><path class="cls-1" d="M288,115.38c0-.41.53-.13.39-.47C288.27,115,287.92,114.88,288,115.38Z"/><path class="cls-1" d="M317.79,92.56l-.08-.09S317.76,92.55,317.79,92.56Z"/><path class="cls-1" d="M295.79,40.85V41a.89.89,0,0,0,.14-.13A.2.2,0,0,1,295.79,40.85Z"/><path class="cls-1" d="M321.22,71.11h0Z"/><path class="cls-1" d="M321.16,69.87l.22.13A.16.16,0,0,0,321.16,69.87Z"/><path class="cls-1" d="M298,39.14l-.4-.08A.77.77,0,0,0,298,39.14Z"/><path class="cls-1" d="M314.47,60.18a.33.33,0,0,0,.1.06A.1.1,0,0,0,314.47,60.18Z"/><path class="cls-1" d="M314.15,115.18a.21.21,0,0,0-.11,0C314.06,115.22,314.09,115.28,314.15,115.18Z"/><polygon class="cls-1" points="318.03 102.94 318.03 102.94 318.03 102.93 318.03 102.94"/><path class="cls-1" d="M317.8,103.53c.15,0,.23-.29.23-.59C317.9,103,317.81,103.11,317.8,103.53Z"/><path class="cls-1" d="M319,102.77l-.06,0S319,102.78,319,102.77Z"/><path class="cls-1" d="M310.58,105.31v0Z"/><path class="cls-1" d="M312.16,104.62a.58.58,0,0,0,.18.11A.35.35,0,0,0,312.16,104.62Z"/><path class="cls-1" d="M321.51,100.63h0Z"/><path class="cls-1" d="M320,98.27a1.45,1.45,0,0,1,.62,0c.25,0,.48.16.38.2a3.62,3.62,0,0,1,1.42.46L321,98.53l.49.17c-.44-.12-.29-.11-.83-.24l.92.27c-.34-.09-.36-.07-.63-.15l-.35-.12-.43-.14h0s1.1.48.74.35l-.71-.33c-.47-.22.15.06.7.42s1.09.75.74.64l-.11-.1c.23.2.12.2.26.31,1,.71-.49-.41.16,0,.85.6.34.37,1,.83-.38-.19,0,.18,0,.26-.6-.35-.49,0-1.08-.48.15.24.67,1,.51,1.05-.54-.52-.39-.54-.68-.7l.28.43c-.16,0-.22-.15-.35-.35-.12,0,.27.64-.06.42,0-.16-.1-.31-.16-.47,0,.21-.09.16-.25.17-.11-.27-.05-.27,0-.21-.38-.65,0,.34-.07.29a2.51,2.51,0,0,1,.39.72c-.07-.07-.09.77-.45.28l.06-.55c-.31.54,0,.68-.59.7a1.34,1.34,0,0,0-.08-.26c-.08.73-.72.36-1.22.5l0-.16c-.13.24-.07.7-.19.7.38.16.36.33.57.77-.67-.63-.2,1.11-1,.89-.1-.27-.08-.65.19-.43a4.83,4.83,0,0,1-.14-2.07c-.15.27-.37.49-.45.13l.22.77a2,2,0,0,1-.35.11c.13.49.58.65.39,1.08s-.49-.68-.42-.32c-.37.48.12.87-.45.81,0-.08.06-.24.13-.19-.45-.17-.77.46-1.22-.39,0-.22-.13-.49,0-.46l.05.13c.11-.78-.24.3-.44-.54.21.46-.3.54-.55.54l.29.52c-.07,1.9-.39-1.09-1-.61-.3.55.23.09.11.58-.34,0-.65-.42-1,0a2.16,2.16,0,0,1-.84-1c-.17.36-.92,0-.83.71.66.33.2-.82,1.05-.24l.08.65c-.38.11-.73.6-1.07.49a.74.74,0,0,1,.2.38c-.44.43-.36,1.08-.94,1.1-.28-.51,0-.54.25-.67-.5-.31-.36.1-.94.13-.22-.47.36-.11.23-.6l-.51.38,0-.1c.24.83-.45.1-.71.48-.82.32-.52,1.43-.72,2.25a.9.9,0,0,1-.36-.58c.35.28.2,0,.19-.22-.25.19-.92-.54-.89-.92-.35.4.32.35.15.71l-.62.18c.23.38.48.39.29.82-.22.22-.38.19-.73.3,0-.22-.36-.58-.09-.66-.23-.08-.49,0-.44.44.53.22-.48.59.06,1.11l-.53-.22c.09,0,0-.3.15-.27-.35-.58-.24.3-.35.41-.18-.07-.54,0-.66-.22-.06.22-.4.2-.58-.09-.13.19.15.41.17.63l-.62.18a5.64,5.64,0,0,1-.56-1.42c-.1.41.32,1,0,1.15-.07-.74-.66-.33-.69-1.23a.79.79,0,0,0-1.18.13c0,.6.45.16.64.71-.79.54-.25,2-1,2l.23.09a1.34,1.34,0,0,0-.31.92c-.16-.71-1.17-1.61-1.77-1.21.08.36.62.49.73,1.07l-.4.27s0-.17,0-.28c-.3.39-1.08-.58-.88.24l-.78-.82.32.36c.08.35-.32.62-.36.79-.3.54-.58.32-1,0,.19.25.63.79.32,1-.43-1.09-.9-.11-1.11-.68-.14.07-.52-.17-.36.29l-.24-.68c.34,1-.2,1.11-.53,1.43-.41-1.31-.39.28-1-.82.27.9-.57.62-.34,1.39-.29.16-.58-.66-.77-.9v.38c-.32-.35-.92-.18-1.37-.33v.89l-.26-.3c0,.21-.19.43.09.65l-.19,0c.32.85-.15.33-.35.82a.49.49,0,0,1-.16-.45c-.18.06-.27-.4-.48-.64.21.17,0,1.74.59,1.93.17.33,0,.69-.23.6l-.4-.71.12.87c-.22.22-.53-.22-.77-.22.2-.13-.09-1.63-.65-1.39.26-.21.24-.69.33-.91-.13,0-.22,0-.16-.42-.35.41,0,.52-.36.79-.25-.68-.45-.85-.93-.93l.49.38a.73.73,0,0,1,0,.2c.14,0,.21.12.34.37-.09,0-.18,1-.41.66.85.87-.44,1.11.09,1.63,0,.21-.26.37-.43,0,.16-.65-.58-.66-.7-1.15-.06.25.48.38.4.71-.2.13-.52-.22-.73-.38l0-.17-.45-.16c.07.35.55.44.31.73-.14-.11-.38.19-.48-.08,0-.52-.38-1.09-.17-1.31-.2.14-.86.49-.33,1l-.27.08c.28.22.94.54.45.84l0-.13-.16.65-.29-.29c.07.17.07.35-.07.39-.11-.18-.27-.21-.37-.49-.37.19-.21.52-.18.74-.2.13-.34,0-.39-.41-.34,0-.82.32-1.17,0-.28.46.14.11.09.66-.82-1-1.51.07-2.1.48.58,1-.14.18.12,1.16,0-.37-.94-.54-.48-1.06l-.31.25c-.46-.47.41-.65-.26-1.28-.38.18-.19,1.41-.8,1.21-.13-.78-.26.38-.46-.46,0-.3.15-.27.26-.38l-.14-.11c-.94.13.1,1-.16,1.63-.48.3-.64-.41-.8-.74-.14-.11-.36.11-.42.35.14-.57.77.23.81.74-.56-.73-.81.24-.82.62,1.1.58.54-.16,1.61.5,0-.3-.32-1,.22-.89-.11.47.19.4.31.49-.25-.39.22-.29.28-.52.25.3.14,1.09.63,1.09l-.32-1c.23.08.23.76.49.38,0,.6.38.79,0,1.14.91.63.7-.81,1-1.35,0,.08,0,.22,0,.3,0-.3.17-.35.27-.46.39.11,0,.54.14.79l.46-.22s0,0,0,.07c.07-.19.16-.32.3-.09s.06.73.07,1l.23-.89c.07.35.64.41.38.79l.68-.44.33.66c.13-.19.08-.33-.16-.33.31.06.65-1.63,1.05-.24.36-.78.66-.65,1.22-1.27-.29.84.94.55.48,1.07.45.16.23-.6.45-.82a1.13,1.13,0,0,1,.35,1.26l.19-.44.05.14.12-.49c.43.25.33.65.67.63l-.18-.63.35.27c-.19-.24-.06-.43.14-.57l.05.14.22-.22c-.12.47.29,0,.34.51.24-.06.24-.07.6-.34l-.23-.38c.39-.57.26.6.71.47l-.21-.46c.93.54.87-.87,1.53-.54-.22.21.07.74,0,.6.33-.33,1-.46,1.2-1.19.42.63.54.82,1.08,1,.29-.16.31-.25.25-.68.4.14.8-.47,1,0-.09-.42.29,0,.32-.42l.12.19-.22-.46c.95.84.65-1,1.55-.24l0,.16.15-.27c.12.19.08.35.17.63l1.07-.32-.34-.28c.2-.13.16-.65.53-.46-.14.87.35-.1.63.41l-.14.28c.28-.17.28-.17.07-.63.33-.32.63.79.79.14l-.27.08c-.18-.24-.15-.7,0-.76s.28.22.17.33c.24-.3.8-.24.86-.49a.57.57,0,0,1,.27.6c.5-.67.33,0,.84-.7l.09.27.1-.41.55.44-.25-.3c.2-.13.26-.37.57-.32l.06.44c.53-.47,1,.38,1.34-.41.07.06,0,.22,0,.3.29-.83.69.55.93-.43,0,.15.14.29.17.42l.14-.36.2.54-.12-.87.38.5v-.3c.68.93.74,0,1.41.63l-.33-.65c.35-1.77,2.4,0,3.25-1.13l.19.55.21-.82c.41.33,0,.52.22.77.37-.49-.11-.88.39-1.25.44.24.06.43,0,.68.42-.48,1.09-1.08,1.59-.93a.64.64,0,0,0-.07-.21c.26-.38.82-.32,1.2-.51a.34.34,0,0,1-.07.42c.15,0,.41.07.43-.23l0,.52c.34,0,.74-.67,1-.15-.12-.2-.27-.61,0-.68.47.76.57-.63,1.16-.35,0,.21-.26.38-.17.35.3.14.33-.32.41-.65l.08.35.78-.83c.47.76.87-.49,1,.14.36-.11-.43-.25,0-.52.25.3.32-.32.52.22l0,.08.29-.16v.6a1.41,1.41,0,0,0,.06-1.22c.36.19.62-.19.93.24l-.05.17c.62-.49,1.74,1,1.93-.13.07.06.12.19,0,.22l.45-.13.05.43.48-.89.09.27a3,3,0,0,0,.88-.33l1.65-.8-.1.19c.95-.86,1.29-.22,2-.84a.18.18,0,0,1,0,.14l.78-.32v.3c.16-.73,2.28,0,1.54-.3.14-.36.45-.84.26-1.14.81-.36.51.2,1.24.17.66-.23.32-.63,1.39-.78l.26.21c.35-.2.4-.44.9-.68l0,.16c.23-.75,2.06.09,1.36-1,.63,0,1.12-.39,1.79,0a15.93,15.93,0,0,1,2-1.65c1.52.41.14-.13,1.59-.12l-.8-.23.2-.08a4.93,4.93,0,0,1-.5-1.91,4.5,4.5,0,0,0-.89-2.2l.63,0-.93-.43A58.53,58.53,0,0,0,337,95.4c-.59-.43-1.64-1-1.89-1.71l.11,0A20.66,20.66,0,0,1,333.74,92a9.8,9.8,0,0,1-.62-1,3.78,3.78,0,0,1-.42-.92c.21-.07.3-.22.46-.21-.58.12-.29-.42-.38-.59l-.2.39c-.55,0-.34-.5-.09-.8l-.67-.05a.53.53,0,0,1,.14-.17l-.27.08.46-.53a1.77,1.77,0,0,0-1.21-.16c.17-.15.12-.55.37-.38l-.58-1.32-.09.32c-.42.29-.92.1-.84-.22.51,0,.63-.36.88-.66-.33,0-.29.38-.58.44s-.84-.38-.72-.61l.25,0c-.33-.18.34-.78.13-1-.51,0-.3-.42-1,.1-.38-.27.42-.46.42-.62-.46.05-.55-.59-.21-.89-1.22.48-.22-1.22-1.18-.72l.34-.62c-.26.14-.84.42-1.09.25.12-.4.58-.61.79-.83l-1,.41c.16-1.91-1.56-3.23-1.65-5.16-.59-.52-1.51-1.06-1.85-1.89h.17l-.21-.9-.09.8c-.2-.09-.46-.11-.54-.27-.13-1.05-.34-2.43-1.43-3.14-1.45,0,.66-1-.49-1.16.13,0,.29-.08.43-.09a7.51,7.51,0,0,0-2.21-1c1.09-.57-.29-.42.29-.7l-.46.2c.17-.31,0-.71.38-.85l-.71,0,.41-.3c-.21-.41-1.09-1-.34-1.78-1.26-.56-2-2.22-2.6-3.54a1.07,1.07,0,0,1-.93-.54l.34-.62c-.34-.19-1.18-.08-1-.55a.26.26,0,0,1,.15,0c-.28-.22-.18-.67-.82-.64a.71.71,0,0,1,.45-1c-.87.5-.29-.74-.29-.74s-8-17.46-15.09-18.5c-.5.13-1-.07-1.42.39-.34-.19.33-.78-.13-.57,0,.56-1.17.56-1.46,1.27l-.25-.18c-.34.14.54.11,0,.4l.83-.43a1,1,0,0,1-.32.72c.42,0,1.57-.56,1.38.17l-.13-.09c.25.34-.37.53-.46.69l0-.08-.21.55c.12-.4-.75-.37-.58-.21,0,.57.12-.23.42,0s-.3.38-.55.53l.25.34c-.37.21-.12-.25-.41.13l.67.21c-.88.66.75.2,0,1-.42-.19-.3.22-.63.36l.55.76c-.09.15-.42,0-.3.06-.16.31.38.1.42.19-.21.22.38.58-.25.94-.08.8.93-.26.89.46-.34.3-.34-.34-.59.12l.46.43c-.21.07-.67.28-.71,0,.38,1.71-1.12,3.7.18,4.66-.33.46-.38.06-.75.12,1.17.55-.17,1.91.38,2.67l.37-.22c-.45,1.82,1.06,2.72,1.36,4.26l.16-.31c.46,0,.67.21,1,.31-.17.15-.88.34-.5.61.08-.16.12-.4.33-.46-.29,1.66,1.35,3.78,2,5.82,1.77,2.21,2.66,5.24,4.34,7.43-.25-.34.75-.75.71-.35-1.09,1.69,1.05,1.11.47,2.51,1.34,1.06.76,3.1,2.73,3.63l-.42.3c-.08.31.25.18.42.35l-.13.07c.13.57.93.86.89,1.26l.5-.29c.21.26-.29.38.17.5l-.25.14.67,0c-.88.51.42.83.17,1.3.38.26,1.17.72,1.34,1.37-.38.38.05,1,.09,1.61a14.17,14.17,0,0,1,2,3l.54-.36.21.25c-.12.07-.17.15-.25.15-.5.61.59.51.34,1,.41-.45,0-.24-.13-.41.13-.39.8-.51.71,0l-.12.07.42,0c-.42.29-.5.61-.92.9.67.85,1.8,1,2.18,2.07-.54.2.55.6-.41.93.67.37.62-.51,1.38-.63.08.17.42.19.12.41-.25.06-.43.45-.59.37l.3.34c0,.07-.21.06-.29.06,1,.46.3,1.7,1.22,2.08.33-.13-.09-.32.25-.46,1.05.31-.17,1,.67,1.33l-.5.12c.42,0,.84-.1.71.45-.46.37-.58,0-.92-.06.13.25.63.77,1,.31.34.18,0,.55-.07.79.12-.07.16-.47.49-.45a1.57,1.57,0,0,0,0,.43c0,.12.13.34.08.31a.6.6,0,0,0,0,.12l-.4.18C321,97.83,319.82,98.35,320,98.27Z"/><path class="cls-1" d="M310.34,105.31h.24a.67.67,0,0,1-.05-.43Z"/><path class="cls-1" d="M320.33,101.73a.79.79,0,0,0,0-.17S320.32,101.67,320.33,101.73Z"/><path class="cls-1" d="M321.25,100.27c0,.12.15.24.26.36A2.58,2.58,0,0,0,321.25,100.27Z"/><path class="cls-1" d="M305.33,109a.44.44,0,0,0-.05-.25A.37.37,0,0,0,305.33,109Z"/><path class="cls-1" d="M289.74,114.71l.09.06A.16.16,0,0,0,289.74,114.71Z"/><path class="cls-1" d="M290.93,115.22s.09,0,.14-.15S291,115.14,290.93,115.22Z"/><path class="cls-1" d="M309,107.28a.27.27,0,0,0,.09-.24A.23.23,0,0,0,309,107.28Z"/><path class="cls-1" d="M291.2,114.88l.24,0,0-.1Z"/><path class="cls-1" d="M289.44,114.75a1,1,0,0,1,.3,0C289.57,114.61,289.48,114.64,289.44,114.75Z"/><path class="cls-1" d="M299.94,111.91s0,0,0,0C300,111.59,300,111.73,299.94,111.91Z"/><polygon class="cls-1" points="291.78 113.58 291.81 113.59 291.82 113.42 291.78 113.58"/><path class="cls-1" d="M288.42,114.91a.15.15,0,0,0,.07-.14h-.14A.48.48,0,0,1,288.42,114.91Z"/><path class="cls-1" d="M296.37,112.36a1.76,1.76,0,0,0,.09.47C296.53,112.8,296.54,112.69,296.37,112.36Z"/><rect class="cls-2" width="369" height="153"/></g></g></svg>