<svg xmlns="http://www.w3.org/2000/svg" viewBox="0 0 460 655"><defs><style>.cls-1{fill:#d8dde1;}.cls-2{fill:#131418;}.cls-3{fill:#b6becb;opacity:0.8;}.cls-4{fill:#fff;}.cls-5{fill:#c8eff9;}.cls-6{fill:none;}</style></defs><title>tile-desk-funny-bot</title><g id="Livello_2" data-name="Livello 2"><g id="Livello_1-2" data-name="Livello 1"><path class="cls-1" d="M77.29,162.85h1.5s0,0,0,0V303.55h0l0,0H77.29A36.69,36.69,0,0,1,40.64,266.9V199.51A36.7,36.7,0,0,1,77.29,162.85Z"/><path class="cls-1" d="M288.29,64.45A131.21,131.21,0,0,0,236.65,54H222.2a131.21,131.21,0,0,0-51.64,10.5,134.38,134.38,0,0,0-70.94,70.93A131.26,131.26,0,0,0,89.12,187V313.25a66.83,66.83,0,0,0,66.61,66.61H303.12a66.82,66.82,0,0,0,66.6-66.61V187a131.43,131.43,0,0,0-10.49-51.65,134.38,134.38,0,0,0-70.94-70.93Z"/><path class="cls-2" d="M236.65,44.41H222.2C143.76,44.41,79.59,108.59,79.59,187V313.25a76.37,76.37,0,0,0,76.14,76.15H303.12a76.37,76.37,0,0,0,76.14-76.15V187C379.26,108.59,315.09,44.41,236.65,44.41ZM369.72,313.25a66.82,66.82,0,0,1-66.6,66.61H155.73a66.83,66.83,0,0,1-66.61-66.61V187a131.26,131.26,0,0,1,10.5-51.65,134.38,134.38,0,0,1,70.94-70.93A131.21,131.21,0,0,1,222.2,54h14.45a131.21,131.21,0,0,1,51.64,10.5,134.38,134.38,0,0,1,70.94,70.93A131.43,131.43,0,0,1,369.72,187Z"/><path class="cls-3" d="M71.63,173.19h-.87c-11.79,0-21.38,14-21.38,31.27V262c0,17.24,9.59,31.27,21.38,31.27h.87s0,0,0,0v-120Z"/><path class="cls-1" d="M381.56,162.85h-1.5s0,0,0,0V303.55h0l0,0h1.47a36.69,36.69,0,0,0,36.65-36.65V199.51A36.7,36.7,0,0,0,381.56,162.85Z"/><path class="cls-2" d="M381.56,153.32h-1.5a9.44,9.44,0,0,0-4.57,1.17C360.67,91.59,303.9,44.41,236.65,44.41H222.2c-67.25,0-124,47.18-138.84,110.08a9.44,9.44,0,0,0-4.57-1.17h-1.5A46.32,46.32,0,0,0,31.1,199.51V266.9a46.33,46.33,0,0,0,46.19,46.19h1.5c.27,0,.53,0,.8,0v.2a76.37,76.37,0,0,0,76.14,76.15H303.12a76.37,76.37,0,0,0,76.14-76.15v-.2c.27,0,.53,0,.8,0h1.5a46.33,46.33,0,0,0,46.19-46.19V199.51A46.33,46.33,0,0,0,381.56,153.32ZM78.79,303.55h0l0,0H77.29A36.69,36.69,0,0,1,40.64,266.9V199.51a36.7,36.7,0,0,1,36.65-36.66h1.5s0,0,0,0Zm290.93-.08c-8.74,5.61-34.19,20.8-58.54,24.33a14.31,14.31,0,1,0,.31,11.18c22.75-3,45.63-14.87,58.15-22.34a66.85,66.85,0,0,1-66.52,63.22H155.73a66.83,66.83,0,0,1-66.61-66.61V187a131.26,131.26,0,0,1,10.5-51.65,134.38,134.38,0,0,1,70.94-70.93A131.21,131.21,0,0,1,222.2,54h14.45a131.21,131.21,0,0,1,51.64,10.5,134.38,134.38,0,0,1,70.94,70.93A131.43,131.43,0,0,1,369.72,187Zm48.49-36.57a36.69,36.69,0,0,1-36.65,36.65h-1.47l0,0h0V162.88s0,0,0,0h1.5a36.7,36.7,0,0,1,36.65,36.66Z"/><path class="cls-2" d="M157.88,215.32a14.71,14.71,0,1,1-14.7,14.7,14.72,14.72,0,0,1,14.7-14.7m0-11.13A25.84,25.84,0,1,0,183.72,230a25.84,25.84,0,0,0-25.84-25.83Z"/><path class="cls-2" d="M304.14,215.32a14.71,14.71,0,1,1-14.7,14.7,14.72,14.72,0,0,1,14.7-14.7m0-11.13A25.84,25.84,0,1,0,330,230a25.84,25.84,0,0,0-25.84-25.83Z"/><path class="cls-1" d="M207.68,429.15a7.17,7.17,0,0,1-7.16-7.16V388.61h57.8V422a7.16,7.16,0,0,1-7.15,7.16Z"/><path class="cls-2" d="M255.94,391v31a4.78,4.78,0,0,1-4.77,4.77H207.68a4.78,4.78,0,0,1-4.77-4.77V391h53m4.77-4.77H198.14V422a9.56,9.56,0,0,0,9.54,9.54h43.49a9.56,9.56,0,0,0,9.54-9.54V386.22Z"/><circle class="cls-4" cx="229.42" cy="489.16" r="91.81"/><path class="cls-2" d="M229.42,402.12a87,87,0,1,1-61.54,25.49,86.47,86.47,0,0,1,61.54-25.49m0-9.54A96.58,96.58,0,1,0,326,489.16a96.58,96.58,0,0,0-96.58-96.58Z"/><path class="cls-1" d="M101.84,607.2a4.78,4.78,0,0,1-4.77-4.77v-.18L86,455.23a4.77,4.77,0,0,1,4.76-4.62h283a4.78,4.78,0,0,1,4.72,4.12,4.67,4.67,0,0,1,0,1.07L366.54,602.24v.19a4.77,4.77,0,0,1-4.76,4.77Z"/><path class="cls-2" d="M373.67,455.38v0L361.81,601.66l0,.36v.39s0,0,0,0H101.84v-.36l0-.36L90.74,455.38H373.67m0-9.54h-283a9.56,9.56,0,0,0-9.53,9.54l11.12,147a9.57,9.57,0,0,0,9.54,9.54H361.78a9.56,9.56,0,0,0,9.53-9.54l11.86-146.25a9.13,9.13,0,0,0,0-2.09,9.57,9.57,0,0,0-9.45-8.25Z"/><rect class="cls-1" x="93.88" y="616.74" width="276.63" height="17.49" rx="4.77" ry="4.77"/><path class="cls-2" d="M365.72,621.51h0v7.91s0,0,0,0H98.68l0,0h0v-7.92s0,0,0,0H365.72m0-9.54H98.65a9.58,9.58,0,0,0-9.54,9.54v8A9.57,9.57,0,0,0,98.65,639H365.74a9.56,9.56,0,0,0,9.54-9.54v-8a9.57,9.57,0,0,0-9.54-9.54Z"/><path class="cls-4" d="M232.2,558.71a23.74,23.74,0,0,1-12.12-3.31l-11.7,2.43,2.7-11.89a23.84,23.84,0,1,1,21.12,12.77Z"/><path class="cls-2" d="M232.2,513.41a21.46,21.46,0,1,1-11.68,39.46l-9,1.87,2.07-9.16a21.45,21.45,0,0,1,18.6-32.17m0-4.77a26.22,26.22,0,0,0-23.64,37.6l-1.68,7.45-1.64,7.23,7.26-1.51,7.18-1.49a26.23,26.23,0,1,0,12.52-49.28Z"/><path class="cls-2" d="M232.6,309.91c-26.13,0-41.73-12.63-41.73-33.78a5.57,5.57,0,1,1,11.13,0c0,19.71,19.17,22.65,30.6,22.65s30.61-2.94,30.61-22.65a5.57,5.57,0,1,1,11.13,0C274.34,297.28,258.74,309.91,232.6,309.91Z"/><path class="cls-3" d="M180.56,60.67A133.76,133.76,0,0,0,89.12,187V313.25a66.83,66.83,0,0,0,66.61,66.61H186.8a234.47,234.47,0,0,1-6.24-319.19Z"/><path class="cls-3" d="M123.71,455.38h-33l11.08,146.33,0,.36v.36h65.4A223.88,223.88,0,0,1,123.3,468.89Q123.3,462.08,123.71,455.38Z"/><circle class="cls-1" cx="410.26" cy="39.25" r="16.3"/><path class="cls-2" d="M410.26,13.41a25.85,25.85,0,0,0-21.43,40.27L340.27,98.13l6.44,7,48.83-44.69a25.83,25.83,0,1,0,14.72-47.06Zm0,42.13a16.3,16.3,0,1,1,16.3-16.29A16.31,16.31,0,0,1,410.26,55.54Z"/><circle class="cls-5" cx="406.09" cy="34.68" r="8.94"/><circle class="cls-1" cx="49.74" cy="39.25" r="16.3"/><path class="cls-2" d="M23.9,39.25A25.83,25.83,0,0,0,64.46,60.47l48.83,44.69,6.44-7L71.17,53.68A25.84,25.84,0,1,0,23.9,39.25Zm9.54,0a16.3,16.3,0,1,1,16.3,16.29A16.32,16.32,0,0,1,33.44,39.25Z"/><circle class="cls-5" cx="45.21" cy="35.47" r="8.94"/><rect class="cls-6" width="460" height="655"/></g></g></svg>